# xmcd
#
# Track frame offsets: 
#        150
#        14357
#        30799
#        47079
#        61494
#        78420
#        93865
#        109482
#        122216
#        136499
#        153863
#        166183
#        180667
#
# Disc length: 2599 seconds
#
# Revision: 5
# Processed by: cddbd v1.5.2PL0 Copyright (c) Steve Scherf et al.
# Submitted via: ExactAudioCopy v0.90b4
#
DISCID=9e0a250d
DTITLE=Rod Stewart - Thanks For The Memory: The Great American Songboo
DTITLE=k Vol. IV
DYEAR=2005
DGENRE=Jazz
TTITLE0=I've Got a Crush on You (duet with Diana Ross)
TTITLE1=I Wish You Love (feat. Chris Botti)
TTITLE2=You Send Me (duet with Chaka Khan)
TTITLE3=Long Ago and Far Away
TTITLE4=Makin' Whoopee (duet with Elton John)
TTITLE5=My One and Only Love  (feat. Roy Hargrove )
TTITLE6=Taking a Chance on Love
TTITLE7=My Funny Valentine
TTITLE8=I've Got My Love to Keep Me Warm
TTITLE9=Nevertheless (feat. Dave Koz)
TTITLE10=Blue Skies
TTITLE11=Let's Fall in Love (feat. George Benson)
TTITLE12=Thanks for the Memory
EXTD=Check Walmart.com for verification, the order is incorrect on the
EXTD=CD. YEAR: 2005
EXTT0=
EXTT1=
EXTT2=
EXTT3=
EXTT4=
EXTT5=
EXTT6=
EXTT7=
EXTT8=
EXTT9=
EXTT10=
EXTT11=
EXTT12=
PLAYORDER=
